<?xml version="1.0" standalone="no"?>
<!DOCTYPE svg PUBLIC "-//W3C//DTD SVG 20010904//EN" "http://www.w3.org/TR/2001/REC-SVG-20010904/DTD/svg10.dtd">
<!-- Created using Karbon, part of Calligra: http://www.calligra.org/karbon -->
<svg xmlns="http://www.w3.org/2000/svg" xmlns:xlink="http://www.w3.org/1999/xlink" width="40pt" height="40pt">
<defs/>
<g id="layer0">
  <circle id="shape0" transform="translate(22.6, 0)" r="1.92000000000pt" cx="1.92000000000pt" cy="1.92000000000pt" fill="#00897b"/>
  <circle id="shape1" transform="translate(22.6, 45.2)" r="1.92000000000pt" cx="1.92000000000pt" cy="1.92000000000pt" fill="#00897b" opacity="0.55000000000"/>
  <circle id="shape2" transform="translate(11.3, 3)" r="1.92000000000pt" cx="1.92000000000pt" cy="1.92000000000pt" fill="#00897b" opacity="0.90000000000"/>
  <path id="shape3" transform="translate(33.9213, 42.2213)" fill="#00897b" opacity="0.45000000000" d="M4.4787 1.1787C5.0787 2.2787 4.6787 3.7787 3.5787 4.4787C2.4787 5.0787 0.978702 4.6787 0.278702 3.5787C-0.321298 2.4787 0.0787016 0.978702 1.1787 0.278702C2.2787 -0.321298 3.7787 0.0787016 4.4787 1.1787Z"/>
  <path id="shape4" transform="translate(3.0213, 11.3)" fill="#00897b" opacity="0.80000000000" d="M3.5787 0.3C4.6787 0.9 5.0787 2.4 4.4787 3.6C3.8787 4.7 2.3787 5.1 1.1787 4.5C0.0787016 3.9 -0.321298 2.4 0.278702 1.2C0.978702 1.85037e-17 2.4787 -0.3 3.5787 0.3Z"/>
  <path id="shape5" transform="translate(42.2213, 33.8769)" fill="#00897b" opacity="0.35000000000" d="M3.5787 0.323053C4.6787 0.923053 5.0787 2.42305 4.4787 3.62305C3.8787 4.72305 2.3787 5.12305 1.1787 4.52305C0.0787016 3.92305 -0.321298 2.42305 0.278702 1.22305C0.878702 0.123053 2.3787 -0.376947 3.5787 0.323053Z"/>
  <circle id="shape6" transform="translate(0, 22.6)" r="1.92000000000pt" cx="1.92000000000pt" cy="1.92000000000pt" fill="#00897b" opacity="0.70000000000"/>
  <circle id="shape7" transform="translate(45.2, 22.6)" r="1.92000000000pt" cx="1.92000000000pt" cy="1.92000000000pt" fill="#00897b" opacity="0.20000000000"/>
  <path id="shape8" transform="translate(2.97695, 33.9213)" fill="#00897b" opacity="0.65000000000" d="M1.22305 0.278702C2.32305 -0.321298 3.82305 0.0787016 4.52305 1.1787C5.12305 2.2787 4.72305 3.7787 3.62305 4.4787C2.52305 5.0787 1.02305 4.6787 0.323053 3.5787C-0.376947 2.4787 0.123053 0.978702 1.22305 0.278702Z"/>
  <path id="shape9" transform="translate(42.2213, 11.3213)" fill="#00897b" opacity="0.10000000000" d="M1.1787 0.278702C2.2787 -0.321298 3.7787 0.0787016 4.4787 1.1787C5.0787 2.2787 4.6787 3.7787 3.5787 4.4787C2.4787 5.0787 0.978702 4.6787 0.278702 3.5787C-0.321298 2.4787 0.0787016 0.978702 1.1787 0.278702Z"/>
  <path id="shape10" transform="translate(11.3213, 42.2213)" fill="#00897b" opacity="0.60000000000" d="M0.278702 1.1787C0.878702 0.0787016 2.3787 -0.321298 3.5787 0.278702C4.6787 0.878702 5.0787 2.3787 4.4787 3.5787C3.8787 4.6787 2.3787 5.0787 1.1787 4.4787C0.0787016 3.7787 -0.321298 2.2787 0.278702 1.1787Z"/>
  <path id="shape11" transform="translate(33.8769, 3.0213)" fill="#061115" d="M0.323053 1.1787C0.923053 0.0787016 2.42305 -0.321298 3.62305 0.278702C4.72305 0.878702 5.12305 2.3787 4.52305 3.5787C3.92305 4.6787 2.42305 5.0787 1.22305 4.4787C0.123053 3.8787 -0.376947 2.3787 0.323053 1.1787Z"/>
 </g>
</svg>
