<?xml version="1.0" standalone="no"?>
<!DOCTYPE svg PUBLIC "-//W3C//DTD SVG 20010904//EN" "http://www.w3.org/TR/2001/REC-SVG-20010904/DTD/svg10.dtd">
<!-- Created using Karbon, part of Calligra: http://www.calligra.org/karbon -->
<svg xmlns="http://www.w3.org/2000/svg" xmlns:xlink="http://www.w3.org/1999/xlink" width="35.2pt" height="35.2pt">
<defs/>
<g id="layer0">
  <path id="shape0" transform="translate(0.5, 0.5)" fill="#00897b" d="M41.5 23C40.7 23 40 22.3 40 21.5C40 11.3 31.7 3 21.5 3C20.7 3 20 2.3 20 1.5C20 0.7 20.7 0 21.5 0C33.4 0 43 9.6 43 21.5C43 22.3 42.3 23 41.5 23ZM21.5 43C9.6 43 0 33.4 0 21.5C0 20.7 0.7 20 1.5 20C2.3 20 3 20.7 3 21.5C3 31.7 11.3 40 21.5 40C22.3 40 23 40.7 23 41.5C23 42.3 22.3 43 21.5 43Z"/>
 </g>
</svg>
