<?xml version="1.0" standalone="no"?>
<!DOCTYPE svg PUBLIC "-//W3C//DTD SVG 20010904//EN" "http://www.w3.org/TR/2001/REC-SVG-20010904/DTD/svg10.dtd">
<!-- Created using Karbon, part of Calligra: http://www.calligra.org/karbon -->
<svg xmlns="http://www.w3.org/2000/svg" xmlns:xlink="http://www.w3.org/1999/xlink" width="38.4pt" height="39.2pt">
<defs/>
<g id="layer0">
  <path id="shape0" transform="translate(-1.07698e-07, 5.54027e-08)" fill="#00897b" d="M47.8498 21.4151C47.7739 20.7379 46.9872 20.2289 46.3069 20.2289C44.1074 20.2289 42.1557 18.9327 41.3372 16.928C40.501 14.8747 41.0402 12.48 42.6794 10.9708C43.1953 10.4974 43.258 9.70483 42.8253 9.15431C41.6996 7.71947 40.4201 6.42339 39.0231 5.30011C38.476 4.85948 37.6734 4.92079 37.199 5.44801C35.7685 7.03827 33.1988 7.6293 31.2131 6.79769C29.1467 5.92521 27.8437 3.82351 27.9712 1.56746C28.0131 0.858823 27.4972 0.24269 26.7933 0.160407C25.0005 -0.0477197 23.192 -0.0541732 21.3939 0.146066C20.6981 0.22315 20.1821 0.824763 20.2055 1.52443C20.2837 3.75826 18.965 5.82321 16.9191 6.66432C14.9572 7.46868 12.4055 6.88267 10.9778 5.30657C10.506 4.78742 9.71637 4.7236 9.16664 5.15365C7.7282 6.28643 6.41996 7.58359 5.2839 9.0066C4.84079 9.55981 4.90598 10.3617 5.42713 10.8376C7.09757 12.356 7.63694 14.7714 6.76913 16.8484C5.9406 18.8285 3.89207 20.1047 1.54689 20.1047C0.785874 20.0802 0.243825 20.5929 0.160598 21.2873C-0.0505061 23.0972 -0.0530065 24.9413 0.150239 26.7658C0.225608 27.446 1.03627 27.9504 1.72406 27.9504C3.81402 27.8968 5.82059 29.1956 6.66232 31.2516C7.50138 33.3049 6.96201 35.6981 5.32033 37.2086C4.80686 37.682 4.74167 38.4733 5.17441 39.0238C6.28959 40.4495 7.56925 41.7468 8.97125 42.8794C9.52116 43.3242 10.3213 43.2615 10.798 42.7342C12.2339 41.14 14.8034 40.5501 16.7812 41.3833C18.8528 42.2531 20.1559 44.3546 20.0283 46.6119C19.9867 47.3209 20.5052 47.9381 21.2062 48.0191C22.1233 48.1265 23.0459 48.1801 23.9711 48.1801C24.8493 48.1801 25.7276 48.1317 26.6058 48.0337C27.3018 47.9566 27.8174 47.355 27.794 46.654C27.7135 44.4215 29.0346 42.3565 31.0777 41.5168C33.0529 40.7071 35.5938 41.2998 37.0217 42.8742C37.4962 43.3923 38.2803 43.4549 38.833 43.0263C40.2688 41.8962 41.5744 40.6001 42.7158 39.1731C43.1587 38.6212 43.0962 37.8181 42.5724 37.3423C40.9019 35.8239 40.3599 33.4081 41.2277 31.3326C42.0435 29.3788 44.016 28.0669 46.1376 28.0669L46.4344 28.0747C47.1225 28.1308 47.7557 27.5987 47.8391 26.8937C48.0505 25.0822 48.053 23.2397 47.8498 21.4151ZM24.0381 32.1764C19.6234 32.1764 16.0325 28.5721 16.0325 24.141C16.0325 19.7102 19.6234 16.1057 24.0381 16.1057C28.4525 16.1057 32.0434 19.7102 32.0434 24.141C32.0434 28.5721 28.4525 32.1764 24.0381 32.1764Z"/>
 </g>
</svg>
