<?xml version="1.0" encoding="UTF-8" standalone="no"?>
<!-- Created with Inkscape (http://www.inkscape.org/) -->

<svg
   width="1018"
   height="200"
   viewBox="0 0 269.34583 52.916667"
   version="1.1"
   id="svg5"
   inkscape:version="1.1 (c4e8f9ed74, 2021-05-24)"
   sodipodi:docname="manjarologo.svg"
   xmlns:inkscape="http://www.inkscape.org/namespaces/inkscape"
   xmlns:sodipodi="http://sodipodi.sourceforge.net/DTD/sodipodi-0.dtd"
   xmlns="http://www.w3.org/2000/svg"
   xmlns:svg="http://www.w3.org/2000/svg">
  <sodipodi:namedview
     id="namedview7"
     pagecolor="#2c2c2c"
     bordercolor="#666666"
     borderopacity="1.0"
     inkscape:pageshadow="2"
     inkscape:pageopacity="0"
     inkscape:pagecheckerboard="0"
     inkscape:document-units="mm"
     showgrid="true"
     units="px"
     width="793.70081px"
     showguides="true"
     inkscape:guide-bbox="true"
     inkscape:zoom="1"
     inkscape:cx="586.5"
     inkscape:cy="83.5"
     inkscape:window-width="1872"
     inkscape:window-height="1050"
     inkscape:window-x="48"
     inkscape:window-y="0"
     inkscape:window-maximized="1"
     inkscape:current-layer="layer1">
    <sodipodi:guide
       position="142.875,26.458333"
       orientation="0,-1"
       id="guide942" />
    <inkscape:grid
       type="xygrid"
       id="grid944" />
  </sodipodi:namedview>
  <defs
     id="defs2" />
  <g
     inkscape:label="Ebene 1"
     inkscape:groupmode="layer"
     id="layer1">
    <path
       id="rect149"
       style="fill:#ffffff;stroke-width:0.264583"
       d="M 3.9687489,1.9864868e-7 C 1.770063,1.9864868e-7 0,1.770063 0,3.9687505 V 48.947916 c 0,2.198688 1.770063,3.96875 3.9687489,3.96875 H 11.90625 15.874999 V 48.947916 15.875 H 34.395832 V 1.9864868e-7 H 11.90625 Z m 33.0729161,0 V 3.9687505 48.947916 v 3.96875 h 3.968749 2.645834 5.291665 c 2.198688,0 3.968751,-1.770062 3.968751,-3.96875 V 3.9687505 C 52.916664,1.770063 51.146601,1.9864868e-7 48.947913,1.9864868e-7 H 43.656248 41.010414 Z M 18.520833,18.520835 V 52.916666 H 34.395832 V 18.520835 Z" />
    <path
       id="path13"
       style="fill:#ffffff;stroke:none"
       d="M 676.29688 16.1875 C 672.95282 16.1875 670.0711 17.397642 667.65625 19.8125 C 665.2414 22.229946 664.0332 25.107125 664.0332 28.451172 C 664.0332 31.797807 665.2414 34.678893 667.65625 37.09375 C 670.0711 39.511196 672.95282 40.720703 676.29688 40.720703 C 679.64093 40.720703 682.52203 39.511196 684.93945 37.09375 C 687.35174 34.678893 688.56055 31.797807 688.56055 28.451172 C 688.56055 25.107125 687.35174 22.229946 684.93945 19.8125 C 682.52203 17.397642 679.64093 16.1875 676.29688 16.1875 z M 875.50195 50.974609 C 868.06845 50.974609 861.25363 52.71204 855.0625 56.177734 C 850.8721 58.525297 847.31343 61.469757 844.28516 64.919922 L 844.28516 61.378906 C 844.28516 58.285919 843.50873 55.962487 841.96094 54.412109 C 840.41318 52.864325 838.08969 52.087891 834.99414 52.087891 C 832.02022 52.087891 829.72907 52.89854 828.11914 54.505859 C 826.50925 56.118353 825.70117 58.40757 825.70117 61.378906 L 825.70117 144.44141 C 825.70117 147.53957 826.50925 149.86496 828.11914 151.41016 C 829.72907 152.96053 832.02022 153.73438 834.99414 153.73438 C 838.08969 153.73438 840.41318 152.9289 841.96094 151.31641 C 843.50873 149.70909 844.28516 147.41274 844.28516 144.44141 L 844.28516 90.181641 C 844.28516 84.487442 846.11293 79.777304 849.76758 76.060547 C 853.41962 72.34379 858.40664 69.807376 864.72461 68.443359 C 871.04258 67.079339 878.16589 67.205177 886.09375 68.8125 C 887.70364 69.185199 889.19004 69.247164 890.55664 68.996094 C 891.91549 68.752806 893.1243 68.163564 894.17773 67.234375 C 895.22859 66.302597 895.94432 64.975012 896.31445 63.238281 C 897.17894 59.894235 895.78746 57.015103 892.13281 54.597656 C 888.47816 52.18021 882.93288 50.974609 875.50195 50.974609 z M 297.37891 51.142578 C 290.06704 51.142578 283.56202 52.880009 277.86523 56.345703 C 275.45555 57.813252 273.31279 59.57315 271.3457 61.519531 C 271.30171 58.773376 270.44669 56.549515 268.76172 54.859375 C 267.02499 53.125233 264.73186 52.257813 261.88477 52.257812 C 259.15931 52.257812 256.89719 53.125233 255.10352 54.859375 C 253.30467 56.596106 252.41016 58.884687 252.41016 61.734375 L 252.41016 144.42383 C 252.41016 147.15187 253.30467 149.41336 255.10352 151.20703 C 256.89719 153.00588 259.15931 153.90234 261.88477 153.90234 C 264.73186 153.90234 267.02499 153.00588 268.76172 151.20703 C 270.49328 149.41336 271.36328 147.15187 271.36328 144.42383 L 271.36328 92.021484 C 271.36328 85.084917 273.46857 79.386692 277.67969 74.929688 C 281.89081 70.470098 287.2199 68.238281 293.66211 68.238281 C 299.85326 68.238281 304.87189 70.127373 308.71289 73.90625 C 312.5513 77.685127 314.47461 83.475657 314.47461 91.279297 L 314.47461 144.42383 C 314.47461 147.15187 315.36912 149.41336 317.16797 151.20703 C 318.96164 153.00588 321.22377 153.90234 323.94922 153.90234 C 326.79632 153.90234 329.09008 153.00588 330.82422 151.20703 C 332.55836 149.41336 333.42773 147.15187 333.42773 144.42383 L 333.42773 92.021484 C 333.42773 85.084917 335.49817 79.386692 339.65234 74.929688 C 343.79875 70.470098 349.09685 68.238281 355.53906 68.238281 C 361.73279 68.238281 366.74885 70.127373 370.58984 73.90625 C 374.42825 77.685127 376.35156 83.475657 376.35156 91.279297 L 376.35156 144.42383 C 376.35156 147.15187 377.24803 149.41336 379.04688 151.20703 C 380.84056 153.00588 383.10267 153.90234 385.82812 153.90234 C 388.67781 153.90234 390.96444 153.00588 392.70117 151.20703 C 394.43529 149.41336 395.30664 147.15187 395.30664 144.42383 L 395.30664 91.279297 C 395.30664 82.732821 393.78602 75.457868 390.75 69.445312 C 387.71394 63.440524 383.47174 58.884635 378.02344 55.789062 C 372.56995 52.69349 366.31666 51.142578 359.25586 51.142578 C 351.20116 51.142578 344.04818 52.880009 337.79492 56.345703 C 333.37674 58.79421 329.69625 61.941144 326.66797 65.714844 C 323.88558 61.532196 320.39384 58.20392 316.14648 55.789062 C 310.693 52.69349 304.43971 51.142578 297.37891 51.142578 z M 590.82617 51.15625 C 582.64981 51.15625 575.27933 52.952402 568.71289 56.544922 C 565.12555 58.509422 561.99281 60.887148 559.23633 63.607422 L 559.23633 61.560547 C 559.23633 58.713448 558.36889 56.422278 556.63477 54.685547 C 554.89803 52.951405 552.61141 52.082031 549.76172 52.082031 C 547.03369 52.082031 544.77021 52.951405 542.97656 54.685547 C 541.1803 56.422278 540.2832 58.713448 540.2832 61.560547 L 540.2832 144.4375 C 540.2832 147.16554 541.1803 149.42703 542.97656 151.2207 C 544.77021 153.01697 547.03369 153.91602 549.76172 153.91602 C 552.61141 153.91602 554.89803 153.01697 556.63477 151.2207 C 558.36889 149.42703 559.23633 147.16554 559.23633 144.4375 L 559.23633 92.035156 C 559.23633 87.453915 560.47357 83.395638 562.95312 79.865234 C 565.43011 76.334834 568.77717 73.517644 572.98828 71.408203 C 577.19939 69.30394 581.90631 68.248047 587.11133 68.248047 C 592.80553 68.248047 597.85643 69.33557 602.25391 71.501953 C 606.65139 73.670922 610.15008 76.983766 612.75391 81.443359 C 615.35509 85.902949 616.6582 91.661217 616.6582 98.724609 L 616.6582 144.4375 C 616.6582 147.16554 617.5527 149.42703 619.35156 151.2207 C 621.14264 153.01697 623.40475 153.91602 626.13281 153.91602 C 628.85566 153.91602 631.1178 153.01697 632.91406 151.2207 C 634.70771 149.42703 635.60937 147.16554 635.60938 144.4375 L 635.60938 98.724609 C 635.60938 88.441403 633.65702 79.771741 629.75391 72.710938 C 625.8534 65.65013 620.52624 60.291359 613.77344 56.636719 C 607.02063 52.984667 599.3752 51.15625 590.82617 51.15625 z M 966.90039 51.330078 C 956.86828 51.330078 948.00886 53.530897 940.33203 57.925781 C 932.64746 62.323258 926.60776 68.397153 922.21289 76.138672 C 917.8128 83.880195 915.61523 92.831905 915.61523 102.98828 C 915.61523 113.02301 917.8128 121.91473 922.21289 129.65625 C 926.60776 137.39777 932.64746 143.46839 940.33203 147.86328 C 948.00886 152.26334 956.86828 154.46094 966.90039 154.46094 C 976.93515 154.46094 985.79069 152.26334 993.47266 147.86328 C 1001.1547 143.46839 1007.1601 137.39777 1011.498 129.65625 C 1015.8308 121.91473 1018 113.02301 1018 102.98828 C 1018 92.831905 1015.8031 83.880195 1011.4082 76.138672 C 1007.0055 68.397153 1000.9659 62.323258 993.28906 57.925781 C 985.60449 53.530897 976.81088 51.330078 966.90039 51.330078 z M 469.48828 51.349609 C 459.82365 51.349609 451.12239 53.611099 443.38086 58.132812 C 435.63676 62.654522 429.50414 68.818771 424.98242 76.625 C 420.4581 84.426051 418.20117 93.226099 418.20117 103.00977 C 418.20117 112.79602 420.2742 121.56122 424.42578 129.30273 C 428.5748 137.04425 434.24465 143.17946 441.42969 147.70117 C 448.61215 152.22288 456.72806 154.48242 465.77148 154.48242 C 474.8123 154.48242 482.92564 152.22288 490.11328 147.70117 C 494.52887 144.91878 498.36512 141.52754 501.63672 137.53125 L 501.63672 144.44727 C 501.63672 147.17272 502.5306 149.43421 504.33203 151.23047 C 506.12568 153.02673 508.38396 153.92578 511.10938 153.92578 C 513.83483 153.92578 516.0957 153.02673 517.89453 151.23047 C 519.68822 149.43421 520.58789 147.17272 520.58789 144.44727 L 520.58789 103.00977 C 520.58789 93.226099 518.32897 84.426051 513.80469 76.625 C 509.28037 68.818771 503.18268 62.654522 495.50586 58.132812 C 487.82129 53.611099 479.1503 51.349609 469.48828 51.349609 z M 755.64453 51.349609 C 745.98251 51.349609 737.27864 53.611099 729.53711 58.132812 C 721.79558 62.654522 715.66495 68.818771 711.14062 76.625 C 706.61891 84.426051 704.35742 93.226099 704.35742 103.00977 C 704.35742 112.79602 706.43178 121.56122 710.58594 129.30273 C 714.73238 137.04425 720.40286 143.17946 727.58789 147.70117 C 734.76778 152.22288 742.88431 154.48242 751.92773 154.48242 C 760.96855 154.48242 769.0858 152.22288 776.27344 147.70117 C 780.68641 144.91878 784.52398 141.52754 787.79297 137.53125 L 787.79297 144.44727 C 787.79297 147.17272 788.68945 149.43421 790.48828 151.23047 C 792.28197 153.02673 794.54151 153.92578 797.26953 153.92578 C 799.99499 153.92578 802.25452 153.02673 804.05078 151.23047 C 805.84443 149.43421 806.74609 147.17272 806.74609 144.44727 L 806.74609 103.00977 C 806.74609 93.226099 804.48652 84.426051 799.96484 76.625 C 795.44052 68.818771 789.33893 62.654522 781.66211 58.132812 C 773.97754 53.611099 765.30655 51.349609 755.64453 51.349609 z M 676.29688 52.087891 C 673.57142 52.087891 671.30928 52.957265 669.51562 54.691406 C 667.71937 56.428137 666.82031 58.719307 666.82031 61.566406 L 666.82031 153.36133 C 666.82031 158.19104 665.73279 162.46684 663.56641 166.18359 C 661.39741 169.90035 658.45894 172.84079 654.74219 175.00977 C 651.02544 177.17615 646.69154 178.25977 641.73242 178.25977 C 639.01214 178.25977 636.78165 179.1246 635.04492 180.86133 C 633.31337 182.59547 632.44336 184.88664 632.44336 187.73633 C 632.44336 190.46178 633.31337 192.72327 635.04492 194.51953 C 636.78165 196.31579 639.01214 197.21484 641.73242 197.21484 C 650.40572 197.21484 658.02018 195.32512 664.5918 191.54883 C 671.15566 187.76737 676.32658 182.59511 680.10547 176.03125 C 683.88432 169.4648 685.77539 161.91039 685.77539 153.36133 L 685.77539 61.566406 C 685.77539 58.719307 684.90408 56.428137 683.16992 54.691406 C 681.43319 52.957265 679.14656 52.087891 676.29688 52.087891 z M 966.90039 68.054688 C 973.3426 68.054688 979.0415 69.539747 983.99805 72.513672 C 988.95199 75.485004 992.82378 79.606552 995.61133 84.871094 C 998.39631 90.138228 999.79102 96.175951 999.79102 102.98828 C 999.79102 109.8032 998.39631 115.81125 995.61133 121.01367 C 992.82378 126.21869 988.95199 130.30601 983.99805 133.27734 C 979.0415 136.25127 973.3426 137.73828 966.90039 137.73828 C 960.45819 137.73828 954.76062 136.25127 949.80664 133.27734 C 944.85013 130.30601 940.94734 126.21869 938.09766 121.01367 C 935.24797 115.81125 933.82617 109.8032 933.82617 102.98828 C 933.82617 96.175951 935.24797 90.138228 938.09766 84.871094 C 940.94734 79.606552 944.85013 75.485004 949.80664 72.513672 C 954.76062 69.539747 960.45819 68.054688 966.90039 68.054688 z M 469.48828 68.076172 C 475.80625 68.076172 481.44059 69.595454 486.39453 72.628906 C 491.34847 75.667541 495.25187 79.813579 498.10156 85.078125 C 500.95386 90.342667 502.38086 96.319083 502.38086 103.00977 C 502.38086 109.57621 500.95386 115.48936 498.10156 120.75391 C 495.25187 126.02363 491.34847 130.16967 486.39453 133.20312 C 481.44059 136.24176 475.80625 137.75977 469.48828 137.75977 C 463.29193 137.75977 457.68857 136.24176 452.66992 133.20312 C 447.65385 130.16967 443.68917 126.02363 440.77734 120.75391 C 437.86556 115.48936 436.41016 109.57621 436.41016 103.00977 C 436.41016 96.319083 437.86556 90.342667 440.77734 85.078125 C 443.68917 79.813579 447.65385 75.667541 452.66992 72.628906 C 457.68857 69.595454 463.29193 68.076172 469.48828 68.076172 z M 755.64453 68.076172 C 761.9625 68.076172 767.60075 69.595454 772.55469 72.628906 C 777.50863 75.667541 781.41203 79.813579 784.26172 85.078125 C 787.11141 90.342667 788.53711 96.319083 788.53711 103.00977 C 788.53711 109.57621 787.11141 115.48936 784.26172 120.75391 C 781.41203 126.02363 777.50863 130.16967 772.55469 133.20312 C 767.60075 136.24176 761.9625 137.75977 755.64453 137.75977 C 749.44822 137.75977 743.8442 136.24176 738.82812 133.20312 C 733.80948 130.16967 729.84476 126.02363 726.93555 120.75391 C 724.02376 115.48936 722.57031 109.57621 722.57031 103.00977 C 722.57031 96.319083 724.02376 90.342667 726.93555 85.078125 C 729.84476 79.813579 733.80948 75.667541 738.82812 72.628906 C 743.8442 69.595454 749.44822 68.076172 755.64453 68.076172 z "
       transform="scale(0.26458333)" />
  </g>
</svg>
